<svg xmlns="http://www.w3.org/2000/svg" viewBox="0 0 20 21"><path d="M20,3H19V1H17V3H7V1H5V3H4A2.006,2.006,0,0,0,2,5V20a2.006,2.006,0,0,0,2,2H20a2.006,2.006,0,0,0,2-2V5A2.006,2.006,0,0,0,20,3Zm0,17H4V8H20Z" transform="translate(-2 -1)" fill="#3a6a75"/><rect width="2" height="2" transform="translate(4 8)" fill="#3a6a75"/><rect width="2" height="2" transform="translate(9 8)" fill="#3a6a75"/><rect width="2" height="2" transform="translate(14 8)" fill="#3a6a75"/><rect width="2" height="2" transform="translate(4 12)" fill="#3a6a75"/><rect width="2" height="2" transform="translate(9 12)" fill="#3a6a75"/><rect width="2" height="2" transform="translate(14 12)" fill="#3a6a75"/><rect width="2" height="2" transform="translate(4 16)" fill="#3a6a75"/><rect width="2" height="2" transform="translate(9 16)" fill="#3a6a75"/><rect width="2" height="2" transform="translate(14 16)" fill="#3a6a75"/></svg>
