<svg xmlns="http://www.w3.org/2000/svg" viewBox="0 0 180 39"><path fill="#fff" fill-rule="evenodd" d="M22.218,75.432a1.255,1.255,0,0,0-.689.248,5.583,5.583,0,0,0-.776.647,10.586,10.586,0,0,0-.83.923q-0.422.524-.837,1.094-1.151,1.561-2.115,2.674t-1.847,2.008A12.469,12.469,0,0,1,12.4,85.159a5.884,5.884,0,0,1-2.938.8,1.491,1.491,0,0,1-1.044-.8,2.924,2.924,0,0,1-.5-1.694,16.151,16.151,0,0,1,.141-2.113q0.141-1.066.375-2.084a19.541,19.541,0,0,1,.542-1.922,14.665,14.665,0,0,1,.656-1.627,8.227,8.227,0,0,1,.7-1.218,2.165,2.165,0,0,1,.676-0.666,5.054,5.054,0,0,1,.234.819,9.355,9.355,0,0,0,.341,1.161,4.253,4.253,0,0,0,.535,1.037,0.969,0.969,0,0,0,.817.447,0.652,0.652,0,0,0,.549-0.3,2.389,2.389,0,0,0,.341-0.714,4.639,4.639,0,0,0,.174-0.885q0.047-.466.047-0.79a7.267,7.267,0,0,0-.428-1.942,13.174,13.174,0,0,0-.468-1.247,6.912,6.912,0,0,0-.542-1.018,3.272,3.272,0,0,0-.589-0.695,0.952,0.952,0,0,0-.622-0.257,1.745,1.745,0,0,0-.99.352,5.605,5.605,0,0,0-.991.895A10.267,10.267,0,0,0,8.5,71.911q-0.435.666-.756,1.275a26.586,26.586,0,0,0-2.021,4.958,17.828,17.828,0,0,0-.736,5.016,11.1,11.1,0,0,0,.274,2.5,7.032,7.032,0,0,0,.81,2.075,4.428,4.428,0,0,0,1.312,1.409,3.108,3.108,0,0,0,1.78.523,7.337,7.337,0,0,0,2.918-.59A9.352,9.352,0,0,0,14.669,87.4q0.8-.723,1.646-1.637t1.713-1.961L18.711,83q0.281-.333.542-0.647t0.542-.676q0.281-.361.656-0.895l1.178-1.675q0.348-.495.589-0.819a5.517,5.517,0,0,0,.395-0.6,2.411,2.411,0,0,0,.227-0.552,2.573,2.573,0,0,0,.074-0.657q0-1.047-.7-1.047h0Zm22.052,1.313a1.34,1.34,0,0,0-.074-0.314,0.626,0.626,0,0,0-.154-0.238,0.365,0.365,0,0,0-.261-0.1,1.425,1.425,0,0,0-.73.542q-0.5.542-1.171,1.418-0.629.819-1.118,1.437T39.8,80.619a12.857,12.857,0,0,1-1.011.961q-0.535.457-1.271,0.971a4.878,4.878,0,0,1-.656.4,4.272,4.272,0,0,1-.609.248,3.375,3.375,0,0,1-.616.133,5.594,5.594,0,0,1-.676.038,0.6,0.6,0,0,1-.448-0.514,8,8,0,0,1-.315-1.342q-0.134-.828-0.241-1.865t-0.207-2.094q-0.1-1.056-.221-2.037a13.7,13.7,0,0,0-.294-1.666,1.741,1.741,0,0,0-.268-0.609,2.249,2.249,0,0,0-.408-0.447,1.884,1.884,0,0,0-.442-0.276,0.976,0.976,0,0,0-.368-0.1,2.354,2.354,0,0,0-1.164.343,6.406,6.406,0,0,0-1.178.875,11.145,11.145,0,0,0-1.1,1.18q-0.522.647-.937,1.256-0.321.476-.669,1.056t-0.669,1.18q-0.321.6-.609,1.17t-0.5,1.028q-0.094.19-.281,0.59t-0.395.847q-0.208.447-.4,0.876t-0.315.676q0.027-.285.087-0.933t0.134-1.38q0.073-.732.134-1.428t0.1-1.075q0.013-.076.054-0.609t0.114-1.37q0.074-.837.167-1.9t0.194-2.2q0.1-1.132.194-2.246T24.888,68.3q0.087-.942.154-1.637t0.107-.961q0-.1.047-0.466t0.107-.828q0.06-.457.107-0.933t0.047-.761a2.7,2.7,0,0,0-.395-1.57,1.15,1.15,0,0,0-.957-0.562,0.994,0.994,0,0,0-.5.143,2.144,2.144,0,0,0-.455.352,2.372,2.372,0,0,0-.355.457,2.244,2.244,0,0,0-.214.457q-0.187.552-.3,1.018t-0.187.923q-0.074.457-.107,0.923t-0.047,1q-0.014.457-.034,1.123T21.85,68.409q-0.034.762-.06,1.551t-0.06,1.523q-0.034.733-.06,1.332t-0.04.961Q21.588,74.9,21.5,76.3t-0.187,2.864q-0.1,1.466-.214,2.912T20.879,84.74q-0.054.628-.127,1.37T20.6,87.538q-0.074.685-.12,1.228t-0.047.752a2.646,2.646,0,0,0,.114.761,2.545,2.545,0,0,0,.308.676,1.857,1.857,0,0,0,.455.485,0.928,0.928,0,0,0,.555.19,0.807,0.807,0,0,0,.241-0.057,1.585,1.585,0,0,0,.355-0.19,2.368,2.368,0,0,0,.395-0.352,2.165,2.165,0,0,0,.348-0.523q0.214-.514.475-1.18t0.535-1.38q0.274-.714.556-1.408t0.549-1.266q0.709-1.542,1.5-2.941t1.5-2.493q0.709-1.094,1.265-1.808a5.141,5.141,0,0,1,.8-0.885,0.4,0.4,0,0,1,.254-0.1,0.293,0.293,0,0,1,.194.276,4.924,4.924,0,0,1,.12.676q0.047,0.4.074,0.847t0.04,0.79q0.027,0.514.107,1.332t0.2,1.665q0.12,0.847.261,1.589a6.64,6.64,0,0,0,.274,1.085,3.073,3.073,0,0,0,1.078,1.523,2.767,2.767,0,0,0,1.613.476,4.713,4.713,0,0,0,2.075-.485,9.241,9.241,0,0,0,1.947-1.285,15.18,15.18,0,0,0,1.807-1.827q0.863-1.028,1.626-2.132,0.2-.286.442-0.685t0.489-.819q0.248-.418.468-0.819t0.355-.7q0.228-.495.355-0.866a2.021,2.021,0,0,0,.127-0.638A2.648,2.648,0,0,0,44.269,76.746Zm5.454,0.971a21.823,21.823,0,0,1-.87,2.627,13.086,13.086,0,0,1-1.024,2.008,13.748,13.748,0,0,1-1.258,1.732A7.754,7.754,0,0,1,45.28,85.3a2.038,2.038,0,0,1-1.151.466,0.367,0.367,0,0,1-.281-0.114,0.8,0.8,0,0,1-.167-0.285,1.621,1.621,0,0,1-.08-0.39q-0.02-.219-0.02-0.447a9.4,9.4,0,0,1,.281-2.113,22.129,22.129,0,0,1,.709-2.4q0.428-1.2.93-2.265a11.609,11.609,0,0,1,.944-1.694,10.761,10.761,0,0,1,1.519-1.837,2.323,2.323,0,0,1,1.613-.676,0.25,0.25,0,0,1,.174.143,1.7,1.7,0,0,1,.167.343,3,3,0,0,1,.12.428,2.026,2.026,0,0,1,.047.4A11.152,11.152,0,0,1,49.724,77.717Zm12.408-1.884a0.488,0.488,0,0,0-.509-0.324,0.79,0.79,0,0,0-.5.285,6.01,6.01,0,0,0-.549.628q-0.261.343-.448,0.628a1.2,1.2,0,0,1-.214.286q-0.79,1.161-1.566,2.16a15.2,15.2,0,0,1-1.553,1.732,7.415,7.415,0,0,1-1.553,1.152,3.267,3.267,0,0,1-1.566.419,0.864,0.864,0,0,1-.629-0.285,2.475,2.475,0,0,1-.482-0.733,4.536,4.536,0,0,1-.308-1,5.677,5.677,0,0,1-.107-1.085,11.247,11.247,0,0,1,.12-1.6q0.12-.837.261-1.637t0.254-1.532a8.433,8.433,0,0,0,.114-1.266,2.775,2.775,0,0,0-.12-0.685q-0.12-.438-0.288-0.885a8.908,8.908,0,0,0-.361-0.838,2.021,2.021,0,0,0-.355-0.542,2.358,2.358,0,0,0-.549-0.285,3.583,3.583,0,0,0-.642-0.171Q50.245,70.2,49.9,70.17t-0.663-.029a2.762,2.762,0,0,0-1.345.438,8.822,8.822,0,0,0-1.533,1.151,13.582,13.582,0,0,0-1.486,1.618,13.9,13.9,0,0,0-1.218,1.818q-0.482.876-.984,2a24.933,24.933,0,0,0-.91,2.36,21.678,21.678,0,0,0-.669,2.541,13.023,13.023,0,0,0-.261,2.56,8.793,8.793,0,0,0,.154,1.542,7.853,7.853,0,0,0,.468,1.618,4.293,4.293,0,0,0,.8,1.285,1.484,1.484,0,0,0,1.124.523,2.735,2.735,0,0,0,.877-0.162,5.948,5.948,0,0,0,.944-0.419,8.481,8.481,0,0,0,.89-0.561,6.463,6.463,0,0,0,.716-0.59q0.428-.418.924-1t0.957-1.228q0.462-.647.85-1.3a10.336,10.336,0,0,0,.629-1.228,5.982,5.982,0,0,0,.422,1.494,5.083,5.083,0,0,0,.7,1.189,3.421,3.421,0,0,0,.87.781,1.767,1.767,0,0,0,.924.285,4.453,4.453,0,0,0,2.021-.476,8.455,8.455,0,0,0,1.82-1.247,14.084,14.084,0,0,0,1.666-1.77q0.8-1,1.573-2.027,0.241-.343.475-0.685t0.422-.638q0.187-.295.335-0.533t0.214-.371a5.373,5.373,0,0,0,.221-0.5q0.114-.295.207-0.609t0.154-.628a2.945,2.945,0,0,0,.06-0.543A3.028,3.028,0,0,0,62.131,75.832Zm11.511,1.513a0.382,0.382,0,0,0-.321-0.219,0.743,0.743,0,0,0-.448.152,2.029,2.029,0,0,0-.388.381,3.459,3.459,0,0,0-.321.485q-0.141.257-.261,0.485-0.254.476-.656,1.133t-0.91,1.351q-0.509.695-1.091,1.38a11.551,11.551,0,0,1-1.191,1.218,6.982,6.982,0,0,1-1.211.866,2.4,2.4,0,0,1-1.164.333,1.39,1.39,0,0,1-.964-0.362,2.608,2.608,0,0,1-.656-1.018,6.653,6.653,0,0,1-.368-1.589,17.221,17.221,0,0,1-.114-2.075q0-1.5.114-3.121t0.294-3.255q0.181-1.637.4-3.226t0.442-3.036q0.221-1.446.415-2.674t0.315-2.141l0.147-1.085a1.581,1.581,0,0,0-1.446-1.313,1.318,1.318,0,0,0-.736.219,2.053,2.053,0,0,0-.582.59,3.534,3.534,0,0,0-.408.856,5.359,5.359,0,0,0-.228,1.018q-0.134,1.1-.227,1.913T61.91,66.125q-0.074.7-.154,1.409t-0.2,1.618q-0.174,1.332-.355,2.788T60.88,74.881q-0.141,1.485-.234,2.941t-0.094,2.807a15.7,15.7,0,0,0,.368,3.616,8.477,8.477,0,0,0,1.011,2.56,4.388,4.388,0,0,0,1.506,1.513,3.665,3.665,0,0,0,1.854.495,3.507,3.507,0,0,0,1.479-.343,7.353,7.353,0,0,0,1.439-.885,9.824,9.824,0,0,0,1.318-1.247,16.187,16.187,0,0,0,1.118-1.409q0.9-1.294,1.5-2.379a19.759,19.759,0,0,0,.964-1.951,9.93,9.93,0,0,0,.515-1.523,4.977,4.977,0,0,0,.154-1.094A1.237,1.237,0,0,0,73.642,77.345Zm12.167,0a0.382,0.382,0,0,0-.321-0.219,0.744,0.744,0,0,0-.448.152,2.032,2.032,0,0,0-.388.381,3.451,3.451,0,0,0-.321.485q-0.141.257-.261,0.485-0.254.476-.656,1.133T82.5,81.114q-0.509.695-1.091,1.38a11.561,11.561,0,0,1-1.191,1.218,6.989,6.989,0,0,1-1.211.866,2.4,2.4,0,0,1-1.165.333,1.39,1.39,0,0,1-.964-0.362,2.608,2.608,0,0,1-.656-1.018,6.658,6.658,0,0,1-.368-1.589,17.222,17.222,0,0,1-.114-2.075q0-1.5.114-3.121t0.294-3.255q0.181-1.637.4-3.226T77,67.229q0.221-1.446.415-2.674t0.314-2.141l0.147-1.085a1.581,1.581,0,0,0-1.446-1.313,1.318,1.318,0,0,0-.736.219,2.054,2.054,0,0,0-.582.59,3.534,3.534,0,0,0-.408.856,5.359,5.359,0,0,0-.228,1.018q-0.134,1.1-.228,1.913t-0.167,1.513q-0.074.7-.154,1.409t-0.2,1.618q-0.174,1.332-.355,2.788t-0.321,2.941q-0.141,1.485-.234,2.941t-0.094,2.807a15.693,15.693,0,0,0,.368,3.616,8.477,8.477,0,0,0,1.011,2.56A4.388,4.388,0,0,0,75.6,88.318a3.665,3.665,0,0,0,1.854.495,3.506,3.506,0,0,0,1.479-.343,7.35,7.35,0,0,0,1.439-.885,9.812,9.812,0,0,0,1.318-1.247,16.188,16.188,0,0,0,1.118-1.409q0.9-1.294,1.5-2.379a19.8,19.8,0,0,0,.964-1.951,9.939,9.939,0,0,0,.515-1.523,4.971,4.971,0,0,0,.154-1.094A1.237,1.237,0,0,0,85.809,77.345Zm4.611-2.531a8.66,8.66,0,0,1-.843,1.684,13.5,13.5,0,0,1-1.151,1.532q-0.636.733-1.265,1.4a21.388,21.388,0,0,1,.542-3.188,14.57,14.57,0,0,1,.837-2.455,5.958,5.958,0,0,1,.984-1.57,1.414,1.414,0,0,1,.97-0.552,0.737,0.737,0,0,1,.194.476,5.123,5.123,0,0,1,.06.8A5.356,5.356,0,0,1,90.42,74.814Zm10.668,1.18a0.367,0.367,0,0,0-.368-0.257,1.953,1.953,0,0,0-1.258.933l-0.709,1.009Q97.9,78.9,96.979,80.067a25.939,25.939,0,0,1-1.907,2.179,11.918,11.918,0,0,1-1.245,1.094,11.245,11.245,0,0,1-1.405.923,8.262,8.262,0,0,1-1.459.638,4.528,4.528,0,0,1-1.392.238,2.19,2.19,0,0,1-.91-0.181,2.083,2.083,0,0,1-.689-0.495,2.375,2.375,0,0,1-.455-0.733,2.812,2.812,0,0,1-.194-0.895q0.83-.894,1.5-1.608T90,79.905a18.983,18.983,0,0,0,2.449-3.721,8.018,8.018,0,0,0,.883-3.512,9.13,9.13,0,0,0-.161-1.742,5.325,5.325,0,0,0-.5-1.466,2.939,2.939,0,0,0-.85-1.018,2,2,0,0,0-1.225-.381,2.45,2.45,0,0,0-.971.209,4.4,4.4,0,0,0-.937.552,6.223,6.223,0,0,0-.843.78,6.368,6.368,0,0,0-.689.914,16.75,16.75,0,0,0-1.352,2.627,19.713,19.713,0,0,0-.89,2.75,20.949,20.949,0,0,0-.489,2.836,28.64,28.64,0,0,0-.147,2.922A9.763,9.763,0,0,0,85.562,87.2a4.1,4.1,0,0,0,3.567,1.837,5.35,5.35,0,0,0,2.081-.447,10.635,10.635,0,0,0,2.135-1.228,16.541,16.541,0,0,0,2.115-1.856,26.471,26.471,0,0,0,2.008-2.332,29.693,29.693,0,0,0,1.814-2.655q0.85-1.4,1.546-2.827a4.251,4.251,0,0,0,.361-1.256A1.257,1.257,0,0,0,101.088,75.994Zm20.934-.428a0.635,0.635,0,0,0-.154-0.238,0.487,0.487,0,0,0-.2-0.114,0.74,0.74,0,0,0-.187-0.028,0.652,0.652,0,0,0-.429.19,3.148,3.148,0,0,0-.441.5q-0.228.314-.475,0.7c-0.166.26-.337,0.523-0.516,0.79q-0.843,1.237-1.686,2.322a21.8,21.8,0,0,1-1.647,1.9,8.957,8.957,0,0,1-1.532,1.285,2.544,2.544,0,0,1-1.345.466,0.824,0.824,0,0,1-.7-0.409,3.405,3.405,0,0,1-.455-1.047A9.319,9.319,0,0,1,112,80.476c-0.059-.52-0.105-1.028-0.141-1.523q-0.093-1.446-.254-2.674a9.933,9.933,0,0,0-.489-2.122,3.5,3.5,0,0,0-.877-1.4,2.012,2.012,0,0,0-1.418-.5,2.77,2.77,0,0,0-1.325.314,4.134,4.134,0,0,0-1.091.856,8.141,8.141,0,0,0-.957,1.285q-0.456.742-.924,1.58-0.361.647-.723,1.37t-0.709,1.418q-0.348.7-.663,1.294t-0.555,1a10.824,10.824,0,0,1,.134-1.085q0.106-.647.234-1.323t0.254-1.3q0.128-.628.194-1.028,0.108-.609.208-1.085c0.067-.317.131-0.619,0.194-0.9s0.111-.561.147-0.828a6.251,6.251,0,0,0,.054-0.837A3.955,3.955,0,0,0,103.2,72.1a2.493,2.493,0,0,0-.234-0.647,1.3,1.3,0,0,0-.335-0.409,0.632,0.632,0,0,0-.388-0.143,2.763,2.763,0,0,0-.455.038,1.155,1.155,0,0,0-.435.171,1.635,1.635,0,0,0-.409.4,2.72,2.72,0,0,0-.361.723,16.53,16.53,0,0,0-.5,1.78q-0.215.961-.368,1.961t-0.254,1.989q-0.1.99-.181,1.884-0.161,2-.161,3.026,0,4.054,1.687,4.587a3.25,3.25,0,0,0,.93-0.771,13.511,13.511,0,0,0,1.01-1.294q0.508-.732.971-1.532t0.783-1.447q0.936-1.884,1.519-3.017t0.964-1.722a2.987,2.987,0,0,1,.635-0.771,0.894,0.894,0,0,1,.522-0.181q0.309,0,.522,1.056t0.389,2.865q0.12,1.332.341,2.56a9.755,9.755,0,0,0,.636,2.18,4.155,4.155,0,0,0,1.077,1.523,2.463,2.463,0,0,0,1.667.571,3.572,3.572,0,0,0,1.131-.171,4.147,4.147,0,0,0,.977-0.476,7.7,7.7,0,0,0,.9-0.695c0.289-.26.591-0.542,0.9-0.847a12.179,12.179,0,0,0,1.2-1.342q0.6-.771,1.177-1.608t1.105-1.694q0.528-.856.957-1.618a6.164,6.164,0,0,0,.314-0.618,8.464,8.464,0,0,0,.308-0.79,7.907,7.907,0,0,0,.234-0.847,3.682,3.682,0,0,0,.094-0.79A1.177,1.177,0,0,0,122.022,75.566Zm4.731,3.626a5.743,5.743,0,0,1-.368.8,6.4,6.4,0,0,1-.415.657,3.036,3.036,0,0,1-.328.4q-0.334.343-.8,0.8t-0.964.866a7.512,7.512,0,0,1-1,.695,1.832,1.832,0,0,1-.9.285,0.56,0.56,0,0,1-.334-0.1,0.471,0.471,0,0,1-.147-0.409,7.91,7.91,0,0,1,.227-1.723,15.465,15.465,0,0,1,.616-2.027q0.362-.952.836-1.961t1.018-1.941a18.187,18.187,0,0,1,1.137-1.732,10.7,10.7,0,0,1,1.2-1.37,1.289,1.289,0,0,1,.509.1,0.411,0.411,0,0,1,.2.314,3.349,3.349,0,0,1,.04.609,5.189,5.189,0,0,1-.034.533q-0.033.324-.06,0.971-0.067,1.218-.127,2.018t-0.127,1.389A2.888,2.888,0,0,1,126.753,79.192Zm3.132-4.121q0.027-.323.061-0.7t0.067-.781q0.033-.4.053-0.771c0.014-.247.02-0.473,0.02-0.676a3.38,3.38,0,0,0-.254-1.361,3.033,3.033,0,0,0-.656-0.971,2.646,2.646,0,0,0-.9-0.581,2.714,2.714,0,0,0-.977-0.19,3.231,3.231,0,0,0-1.686.533,8.94,8.94,0,0,0-1.687,1.361,14.425,14.425,0,0,0-1.519,1.827,17.923,17.923,0,0,0-1.185,1.913q-0.481.914-.99,2.084t-0.924,2.427a24.178,24.178,0,0,0-.682,2.5A11.03,11.03,0,0,0,118.361,84a6.777,6.777,0,0,0,.161,1.542,4.289,4.289,0,0,0,.441,1.171,2.315,2.315,0,0,0,.663.752,1.388,1.388,0,0,0,.81.266,3.887,3.887,0,0,0,1.653-.39,8.24,8.24,0,0,0,1.639-1.028,11.9,11.9,0,0,0,1.54-1.475A18.763,18.763,0,0,0,126.62,83.1q-0.081,1.294-.168,2.674t-0.207,2.5q-0.121,1.085-.315,2.341a15.923,15.923,0,0,1-.528,2.322,6.11,6.11,0,0,1-.857,1.78,1.559,1.559,0,0,1-1.3.714,4.923,4.923,0,0,1-2.537-.742,8.507,8.507,0,0,1-2.4-2.284,1.438,1.438,0,0,0-.161-0.219q-0.133-.162-0.308-0.343a3.442,3.442,0,0,0-.355-0.324,0.532,0.532,0,0,0-.3-0.143,0.524,0.524,0,0,0-.448.285,1.288,1.288,0,0,0-.181.7,2.421,2.421,0,0,0,.087.666,7.366,7.366,0,0,0,.248.7,9.581,9.581,0,0,0,1.646,2.589,9.407,9.407,0,0,0,1.031,1.037,8,8,0,0,0,1.178.847,6.385,6.385,0,0,0,1.258.571,4.086,4.086,0,0,0,1.271.209,3.332,3.332,0,0,0,1.807-.495,4.851,4.851,0,0,0,1.386-1.342,8.959,8.959,0,0,0,1.017-1.941,19.622,19.622,0,0,0,.723-2.3q0.3-1.209.488-2.436T129,88.147q0.081-.7.161-1.608t0.154-1.846q0.074-.942.133-1.846t0.1-1.589q0.107-1.846.167-3.379t0.167-2.788V75.071Zm9.122-.257a8.637,8.637,0,0,1-.843,1.684,13.507,13.507,0,0,1-1.151,1.532q-0.636.733-1.265,1.4a21.479,21.479,0,0,1,.542-3.188,14.488,14.488,0,0,1,.837-2.455,5.966,5.966,0,0,1,.983-1.57,1.415,1.415,0,0,1,.971-0.552,0.736,0.736,0,0,1,.194.476,5.135,5.135,0,0,1,.06.8A5.344,5.344,0,0,1,139.007,74.814Zm10.668,1.18a0.367,0.367,0,0,0-.368-0.257,1.951,1.951,0,0,0-1.258.933l-0.71,1.009q-0.856,1.218-1.773,2.389a25.917,25.917,0,0,1-1.907,2.179,11.952,11.952,0,0,1-1.245,1.094,11.236,11.236,0,0,1-1.406.923,8.257,8.257,0,0,1-1.459.638,4.524,4.524,0,0,1-1.392.238,2.192,2.192,0,0,1-.91-0.181,2.08,2.08,0,0,1-.689-0.495,2.366,2.366,0,0,1-.455-0.733,2.785,2.785,0,0,1-.194-0.895q0.829-.894,1.5-1.608t1.178-1.323a18.98,18.98,0,0,0,2.449-3.721,8.016,8.016,0,0,0,.883-3.512,9.139,9.139,0,0,0-.16-1.742,5.322,5.322,0,0,0-.5-1.466,2.954,2.954,0,0,0-.85-1.018,2.006,2.006,0,0,0-1.225-.381,2.446,2.446,0,0,0-.97.209,4.37,4.37,0,0,0-.937.552,6.223,6.223,0,0,0-.844.78,6.38,6.38,0,0,0-.689.914,16.8,16.8,0,0,0-1.352,2.627,19.779,19.779,0,0,0-.89,2.75,21.026,21.026,0,0,0-.488,2.836,28.411,28.411,0,0,0-.148,2.922,9.757,9.757,0,0,0,1.279,5.548,4.1,4.1,0,0,0,3.567,1.837,5.346,5.346,0,0,0,2.081-.447,10.647,10.647,0,0,0,2.135-1.228,16.529,16.529,0,0,0,2.115-1.856,26.382,26.382,0,0,0,2.007-2.332,29.632,29.632,0,0,0,1.814-2.655q0.851-1.4,1.546-2.827a4.251,4.251,0,0,0,.361-1.256A1.257,1.257,0,0,0,149.675,75.994Zm13.338,0.628a4.884,4.884,0,0,0-1.258-1.808,4.762,4.762,0,0,0-1.834-1,7.809,7.809,0,0,0-2.195-.3,4.071,4.071,0,0,0-.529.038c-0.192.026-.381,0.054-0.569,0.086s-0.363.06-.528,0.086-0.306.045-.422,0.057a5.009,5.009,0,0,1,.656-0.78q0.388-.381.85-0.752t0.977-.771q0.514-.4,1.011-0.819,0.749-.647,1.271-1.123a7.423,7.423,0,0,0,.863-0.914,3,3,0,0,0,.5-0.9,3.447,3.447,0,0,0,.154-1.075,1.822,1.822,0,0,0-2.1-2.018c-0.036,0-.12.007-0.254,0.019s-0.3.026-.489,0.038-0.4.029-.622,0.048l-0.649.057q-0.315.029-.569,0.047c-0.17.013-.3,0.026-0.388,0.038q-1.1.114-1.954,0.228l-1.5.2q-0.642.086-1.1,0.133a7.6,7.6,0,0,1-.776.048,1.983,1.983,0,0,1-.409-0.038,1.289,1.289,0,0,1-.328-0.114c-0.1-.063-0.212-0.139-0.341-0.229s-0.263-.174-0.4-0.257a3.581,3.581,0,0,0-.435-0.219,1.144,1.144,0,0,0-.442-0.1,1.3,1.3,0,0,0-1.011.457,1.79,1.79,0,0,0-.408,1.237,3.958,3.958,0,0,0,.709,2.57,2.462,2.462,0,0,0,2.008.857,4.765,4.765,0,0,0,.736-0.124q0.576-.124,1.346-0.314t1.639-.409l1.633-.409q0.763-.19,1.319-0.324a4.276,4.276,0,0,1,.7-0.133,20.282,20.282,0,0,0-1.579,1.3q-0.831.752-1.606,1.542t-1.439,1.532q-0.663.742-1.078,1.256l-0.716.885c-0.21.26-.372,0.473-0.488,0.638a2.519,2.519,0,0,0-.288.543,5.25,5.25,0,0,0-.188.581,4.981,4.981,0,0,0-.107.523,2.85,2.85,0,0,0-.033.352q0,1.332,1.62,1.332a6.256,6.256,0,0,1,4.015-1.351,7.507,7.507,0,0,1,3.145.628,1.62,1.62,0,0,1,.81.733,2.906,2.906,0,0,1,.275,1.38,4.614,4.614,0,0,1-.382,1.913,5.091,5.091,0,0,1-1.017,1.494,6.643,6.643,0,0,1-1.452,1.114,9.741,9.741,0,0,1-1.68.761,10.908,10.908,0,0,1-1.707.438,9.279,9.279,0,0,1-1.539.143,3.232,3.232,0,0,1-1.4-.343q-0.715-.343-1.439-0.761c-0.116-.076-0.209-0.14-0.281-0.19s-0.134-.092-0.187-0.124a0.937,0.937,0,0,0-.161-0.076,0.654,0.654,0,0,0-.214-0.028,1.6,1.6,0,0,0-1.305.581,2.67,2.67,0,0,0-.475,1.722,3.921,3.921,0,0,0,.094.847,3.754,3.754,0,0,0,.267.8,2.638,2.638,0,0,0,.422.647,1.6,1.6,0,0,0,.555.409,8.152,8.152,0,0,0,.844.276q0.454,0.124,1.017.219a6.787,6.787,0,0,0,.917.114q0.408,0.019.783,0.019a11.4,11.4,0,0,0,3.962-.8,12.667,12.667,0,0,0,1.639-.752,14.4,14.4,0,0,0,1.714-1.094,12.863,12.863,0,0,0,1.626-1.437,10.251,10.251,0,0,0,1.365-1.78,9.423,9.423,0,0,0,.944-2.122,8.346,8.346,0,0,0,.355-2.465A7,7,0,0,0,163.013,76.622Zm18.551-.019a9.266,9.266,0,0,1-.588,1.332,13.7,13.7,0,0,1-.817,1.332q-0.454.657-.917,1.247t-0.883,1.056q-0.422.467-.73,0.771-0.6.59-1.338,1.228a15.749,15.749,0,0,1-1.513,1.161,9.957,9.957,0,0,1-1.526.856,3.419,3.419,0,0,1-1.378.333,3.237,3.237,0,0,1-2.195-.876,1.253,1.253,0,0,1-.281-0.514,6.818,6.818,0,0,1-.215-0.838,9.528,9.528,0,0,1-.14-1.028Q169,82.113,169,81.6a14.051,14.051,0,0,1,1.178-5.634,21.343,21.343,0,0,1,3-5.082q0.549-.685,1-1.18a5.091,5.091,0,0,1,.9-0.8,3.3,3.3,0,0,1,.95-0.447,4.249,4.249,0,0,1,1.158-.143,0.505,0.505,0,0,1,.261.124q0.168,0.124.348,0.285t0.348,0.285a0.51,0.51,0,0,0,.275.124,1.429,1.429,0,0,0,.99-0.324q0.2,0.228.435,0.552t0.469,0.666q0.234,0.343.441,0.676c0.139,0.222.252,0.416,0.342,0.581a2.559,2.559,0,0,1,.241.685q0.12,0.5.227,1.095t0.174,1.228a10.338,10.338,0,0,1,.067,1.085A3.755,3.755,0,0,1,181.564,76.6Zm3.106-5.491a9.331,9.331,0,0,0-.991-2.8,6.127,6.127,0,0,0-.435-0.619,12.035,12.035,0,0,0-.8-0.933q-0.476-.5-1.051-1.018a8.135,8.135,0,0,0-1.164-.876A7.888,7.888,0,0,0,178.8,64.2a4.247,4.247,0,0,0-1.386-.247,4.96,4.96,0,0,0-1.733.314,8.149,8.149,0,0,0-1.787.961,16.083,16.083,0,0,0-1.74,1.37,20.907,20.907,0,0,0-1.606,1.618,16.153,16.153,0,0,0-1.332,1.77,17.521,17.521,0,0,0-1.211,2.189,25.687,25.687,0,0,0-1.064,2.56,26.7,26.7,0,0,0-.784,2.636,22.541,22.541,0,0,0-.669,5.177,13.051,13.051,0,0,0,.308,2.884,8.341,8.341,0,0,0,.91,2.389,4.894,4.894,0,0,0,1.5,1.627,3.647,3.647,0,0,0,2.075.6,9.471,9.471,0,0,0,1.272-.1q0.748-.1,1.753-0.314a8.31,8.31,0,0,0,1.767-.59,12.849,12.849,0,0,0,1.927-1.1,17.913,17.913,0,0,0,1.988-1.58,23.761,23.761,0,0,0,1.84-1.884,20.333,20.333,0,0,0,1.68-2.227,18.237,18.237,0,0,0,1.3-2.36,12.3,12.3,0,0,0,1.178-5.082A19.1,19.1,0,0,0,184.67,71.112Z" transform="translate(-5 -60)"/>
</svg>
